<svg version="1.1" id="Layer_1" xmlns="http://www.w3.org/2000/svg" xmlns:xlink="http://www.w3.org/1999/xlink" x="0px" y="0px"
	 width="100%" viewBox="0 0 1280 1044" enable-background="new 0 0 1280 1044" xml:space="preserve">
<path fill="#000000" opacity="1.000000" stroke="none" 
	d="
M380.000000,1045.000000 
	C352.644012,1045.000000 325.288055,1045.000000 297.304138,1044.551270 
	C296.676239,1032.856567 296.676239,1021.610413 296.676239,1009.847717 
	C274.365814,1009.847717 252.322922,1009.847717 229.798950,1009.847717 
	C229.798950,959.641174 229.798950,909.953369 229.798950,860.395630 
	C218.255768,860.395630 207.207581,860.395630 196.000000,860.395630 
	C196.000000,922.194092 196.000000,983.597046 196.000000,1045.000000 
	C131.046234,1045.000000 66.092468,1045.000000 1.000000,1045.000000 
	C1.000000,907.644104 1.000000,770.288086 1.285583,632.191772 
	C3.043593,632.795471 4.571459,634.084045 5.980292,635.491821 
	C35.205544,664.694763 64.465797,693.863098 93.561615,723.194519 
	C96.696945,726.355225 98.538383,726.389954 101.483589,723.143066 
	C106.624512,717.475525 111.844193,711.786194 117.673622,706.867737 
	C121.865677,703.330811 121.097870,701.417603 117.674690,698.036072 
	C95.040619,675.677612 72.597328,653.125977 50.085384,630.630737 
	C108.848022,571.869934 167.485794,513.234009 226.045486,454.676208 
	C219.304779,447.890259 212.740707,441.268768 206.161011,434.662842 
	C201.496475,429.979706 201.486176,429.988251 196.957733,434.516724 
	C133.110626,498.363708 69.267937,562.215149 5.386189,626.027527 
	C4.158944,627.253418 2.472291,628.019409 0.999998,629.000000 
	C1.000000,419.738647 1.000000,210.477264 1.000000,1.000000 
	C210.022568,1.000000 419.045227,1.000000 628.806213,1.286613 
	C628.196350,3.044910 626.902100,4.570469 625.492310,5.980556 
	C540.902161,90.586044 456.302063,175.181625 371.707428,259.782654 
	C370.342926,261.147339 369.034149,262.567780 367.451385,264.221283 
	C374.475464,271.151276 381.124359,277.688049 387.746246,284.252075 
	C392.622467,289.085663 392.613190,289.107941 397.319580,284.401672 
	C473.788818,207.935150 550.255798,131.466431 626.728088,55.002964 
	C628.115356,53.615852 629.561401,52.287563 631.085510,50.830982 
	C745.306335,165.052338 859.309631,279.056213 972.510986,392.258118 
	C980.889771,383.920319 988.970520,375.879120 997.418213,367.472748 
	C996.202087,366.379517 994.523376,365.005280 992.996765,363.478973 
	C873.747131,244.252289 754.507019,125.016090 635.302124,5.744716 
	C633.961304,4.403153 633.090271,2.591978 632.000000,1.000002 
	C848.261353,1.000000 1064.522705,1.000000 1281.000000,1.000000 
	C1281.000000,217.022583 1281.000000,433.045227 1280.714600,649.808472 
	C1278.957153,649.205383 1277.429321,647.917419 1276.021118,646.509888 
	C1233.022705,603.529785 1190.036865,560.536987 1147.042358,517.552979 
	C1145.778687,516.289612 1144.441895,515.099304 1143.528809,514.241333 
	C1135.326416,522.436951 1127.367798,530.389099 1118.952881,538.796997 
	C1156.364136,576.200256 1194.071777,613.899780 1232.077271,651.897217 
	C1231.187256,652.598938 1230.470093,653.056580 1229.882324,653.643616 
	C1207.725830,675.771729 1185.620850,697.951477 1163.384888,719.999084 
	C1160.625244,722.735474 1160.447998,724.449158 1163.359741,727.224365 
	C1170.468018,733.999268 1177.252441,741.113708 1184.123413,748.047058 
	C1184.621582,747.781616 1184.935913,747.695984 1185.135742,747.495911 
	C1215.857910,716.740662 1246.564941,685.970093 1277.317871,655.245544 
	C1278.306396,654.257935 1279.762085,653.737976 1281.000000,653.000000 
	C1281.000000,783.573730 1281.000000,914.147461 1281.000000,1045.000000 
	C1209.310913,1045.000000 1137.621460,1045.000000 1065.304443,1044.551270 
	C1064.784668,1042.449951 1064.986450,1040.797241 1064.986694,1039.144653 
	C1065.001709,939.517273 1065.000122,839.889954 1065.000122,740.262573 
	C1065.000122,738.649292 1065.000122,737.036072 1065.000122,735.321777 
	C1053.415771,735.321777 1042.365479,735.321777 1030.815063,735.321777 
	C1030.815063,827.004333 1030.815063,918.366211 1030.815063,1010.198853 
	C882.964722,1010.198853 735.617859,1010.198853 588.000000,1010.198853 
	C588.000000,1022.113403 588.000000,1033.556641 588.000000,1045.000000 
	C560.977356,1045.000000 533.954712,1045.000000 506.304321,1044.551270 
	C505.676544,1032.853149 505.676544,1021.603516 505.676544,1010.339722 
	C463.690063,1010.339722 421.986542,1010.339722 380.000000,1010.339722 
	C380.000000,1022.118042 380.000000,1033.559082 380.000000,1045.000000 
M702.500000,944.000122 
	C789.924561,944.000122 877.349182,944.000122 965.000000,944.000122 
	C965.000000,942.625061 965.000000,941.814941 965.000000,941.004883 
	C965.000061,850.673645 965.022949,760.342407 964.866638,670.011475 
	C964.862793,667.775513 963.383484,665.034790 961.736450,663.382507 
	C906.673035,608.141541 851.504456,553.005371 796.352966,497.852203 
	C741.083374,442.580933 685.815674,387.307922 630.548035,332.036530 
	C630.254761,332.300934 629.997375,332.512756 629.762756,332.747314 
	C519.333374,443.162537 408.897614,553.571289 298.561432,664.079590 
	C297.064484,665.578918 296.106354,668.333496 296.103424,670.503845 
	C295.982391,760.168274 295.998718,849.832886 296.009308,939.497437 
	C296.009491,940.933472 296.152679,942.369507 296.239471,944.000122 
	C431.550415,944.000122 566.525208,944.000122 702.500000,944.000122 
M469.999969,413.499969 
	C523.587158,359.912415 577.174316,306.324829 631.027283,252.471512 
	C774.077454,395.982819 916.810059,539.175537 1059.263184,682.087952 
	C1079.568970,661.781311 1099.451660,641.897705 1118.945679,622.402954 
	C956.332581,459.789856 793.197327,296.654541 630.552307,134.009521 
	C467.961731,296.600037 305.138153,459.423523 142.190491,622.371155 
	C161.513351,642.157715 181.092041,662.206238 200.954758,682.545654 
	C290.681000,592.819275 380.090485,503.409607 469.999969,413.499969 
M314.001526,317.501526 
	C302.693939,328.807953 291.388184,340.116241 280.078186,351.420258 
	C268.532898,362.959381 256.930023,374.442108 245.518753,386.112213 
	C244.382278,387.274506 243.396744,390.506592 244.036957,391.190491 
	C251.499420,399.161377 259.287506,406.827393 267.380096,414.966949 
	C295.904480,386.447418 323.869232,358.487366 351.965271,330.396088 
	C342.700592,321.274780 334.517151,313.218018 326.442688,305.268555 
	C322.572937,309.070862 318.537262,313.036224 314.001526,317.501526 
M196.022202,817.226074 
	C196.481567,817.793579 196.936676,818.852356 197.400925,818.856384 
	C208.159821,818.949707 218.919724,818.928528 229.641052,818.928528 
	C229.641052,790.657898 229.641052,762.950073 229.641052,735.235840 
	C218.349854,735.235840 207.419189,735.235840 196.003174,735.235840 
	C196.003174,762.403015 196.003174,789.337341 196.022202,817.226074 
M1078.951538,496.520050 
	C1086.761597,488.706696 1094.571655,480.893311 1101.584106,473.877838 
	C1087.135742,459.417786 1073.205444,445.476074 1059.147705,431.406982 
	C1059.564209,431.185211 1059.394775,431.234619 1059.280029,431.342224 
	C1051.938843,438.228149 1044.624756,445.143280 1037.251587,451.994720 
	C1034.943481,454.139343 1036.125366,455.645172 1037.826782,457.340546 
	C1050.661499,470.130005 1063.455200,482.960449 1076.291382,495.748352 
	C1076.827637,496.282623 1077.657471,496.522339 1078.951538,496.520050 
z"/>
<path fill="#0FB3AB" opacity="1.000000" stroke="none" 
	d="
M631.625000,1.000002 
	C633.090271,2.591978 633.961304,4.403153 635.302124,5.744716 
	C754.507019,125.016090 873.747131,244.252289 992.996765,363.478973 
	C994.523376,365.005280 996.202087,366.379517 997.418213,367.472748 
	C988.970520,375.879120 980.889771,383.920319 972.510986,392.258118 
	C859.309631,279.056213 745.306335,165.052338 631.085510,50.830982 
	C629.561401,52.287563 628.115356,53.615852 626.728088,55.002964 
	C550.255798,131.466431 473.788818,207.935150 397.319580,284.401672 
	C392.613190,289.107941 392.622467,289.085663 387.746246,284.252075 
	C381.124359,277.688049 374.475464,271.151276 367.451385,264.221283 
	C369.034149,262.567780 370.342926,261.147339 371.707428,259.782654 
	C456.302063,175.181625 540.902161,90.586044 625.492310,5.980556 
	C626.902100,4.570469 628.196350,3.044910 629.272278,1.286613 
	C629.750000,1.000000 630.500000,1.000000 631.625000,1.000002 
z"/>
<path fill="#0FB2AA" opacity="1.000000" stroke="none" 
	d="
M588.468628,1045.000000 
	C588.000000,1033.556641 588.000000,1022.113403 588.000000,1010.198853 
	C735.617859,1010.198853 882.964722,1010.198853 1030.815063,1010.198853 
	C1030.815063,918.366211 1030.815063,827.004333 1030.815063,735.321777 
	C1042.365479,735.321777 1053.415771,735.321777 1065.000122,735.321777 
	C1065.000122,737.036072 1065.000122,738.649292 1065.000122,740.262573 
	C1065.000122,839.889954 1065.001709,939.517273 1064.986694,1039.144653 
	C1064.986450,1040.797241 1064.784668,1042.449951 1064.838501,1044.551270 
	C906.312439,1045.000000 747.624878,1045.000000 588.468628,1045.000000 
z"/>
<path fill="#0FB2AA" opacity="1.000000" stroke="none" 
	d="
M0.999998,629.375000 
	C2.472291,628.019409 4.158944,627.253418 5.386189,626.027527 
	C69.267937,562.215149 133.110626,498.363708 196.957733,434.516724 
	C201.486176,429.988251 201.496475,429.979706 206.161011,434.662842 
	C212.740707,441.268768 219.304779,447.890259 226.045486,454.676208 
	C167.485794,513.234009 108.848022,571.869934 50.085384,630.630737 
	C72.597328,653.125977 95.040619,675.677612 117.674690,698.036072 
	C121.097870,701.417603 121.865677,703.330811 117.673622,706.867737 
	C111.844193,711.786194 106.624512,717.475525 101.483589,723.143066 
	C98.538383,726.389954 96.696945,726.355225 93.561615,723.194519 
	C64.465797,693.863098 35.205544,664.694763 5.980292,635.491821 
	C4.571459,634.084045 3.043593,632.795471 1.285583,631.725708 
	C1.000000,631.250000 1.000000,630.500000 0.999998,629.375000 
z"/>
<path fill="#0FB2AA" opacity="1.000000" stroke="none" 
	d="
M1281.000000,652.625000 
	C1279.762085,653.737976 1278.306396,654.257935 1277.317871,655.245544 
	C1246.564941,685.970093 1215.857910,716.740662 1185.135742,747.495911 
	C1184.935913,747.695984 1184.621582,747.781616 1184.123413,748.047058 
	C1177.252441,741.113708 1170.468018,733.999268 1163.359741,727.224365 
	C1160.447998,724.449158 1160.625244,722.735474 1163.384888,719.999084 
	C1185.620850,697.951477 1207.725830,675.771729 1229.882324,653.643616 
	C1230.470093,653.056580 1231.187256,652.598938 1232.077271,651.897217 
	C1194.071777,613.899780 1156.364136,576.200256 1118.952881,538.796997 
	C1127.367798,530.389099 1135.326416,522.436951 1143.528809,514.241333 
	C1144.441895,515.099304 1145.778687,516.289612 1147.042358,517.552979 
	C1190.036865,560.536987 1233.022705,603.529785 1276.021118,646.509888 
	C1277.429321,647.917419 1278.957153,649.205383 1280.714600,650.274536 
	C1281.000000,650.750000 1281.000000,651.500000 1281.000000,652.625000 
z"/>
<path fill="#0FB2AA" opacity="1.000000" stroke="none" 
	d="
M196.468658,1045.000000 
	C196.000000,983.597046 196.000000,922.194092 196.000000,860.395630 
	C207.207581,860.395630 218.255768,860.395630 229.798950,860.395630 
	C229.798950,909.953369 229.798950,959.641174 229.798950,1009.847717 
	C252.322922,1009.847717 274.365814,1009.847717 296.676239,1009.847717 
	C296.676239,1021.610413 296.676239,1032.856567 296.838135,1044.551270 
	C263.645782,1045.000000 230.291550,1045.000000 196.468658,1045.000000 
z"/>
<path fill="#0FB2AA" opacity="1.000000" stroke="none" 
	d="
M380.468658,1045.000000 
	C380.000000,1033.559082 380.000000,1022.118042 380.000000,1010.339722 
	C421.986542,1010.339722 463.690063,1010.339722 505.676544,1010.339722 
	C505.676544,1021.603516 505.676544,1032.853149 505.838257,1044.551270 
	C464.312439,1045.000000 422.624878,1045.000000 380.468658,1045.000000 
z"/>
<path fill="#FFFFFF" opacity="1.000000" stroke="none" 
	d="
M702.000000,944.000122 
	C566.525208,944.000122 431.550415,944.000122 296.239471,944.000122 
	C296.152679,942.369507 296.009491,940.933472 296.009308,939.497437 
	C295.998718,849.832886 295.982391,760.168274 296.103424,670.503845 
	C296.106354,668.333496 297.064484,665.578918 298.561432,664.079590 
	C408.897614,553.571289 519.333374,443.162537 629.762756,332.747314 
	C629.997375,332.512756 630.254761,332.300934 630.548035,332.036530 
	C685.815674,387.307922 741.083374,442.580933 796.352966,497.852203 
	C851.504456,553.005371 906.673035,608.141541 961.736450,663.382507 
	C963.383484,665.034790 964.862793,667.775513 964.866638,670.011475 
	C965.022949,760.342407 965.000061,850.673645 965.000000,941.004883 
	C965.000000,941.814941 965.000000,942.625061 965.000000,944.000122 
	C877.349182,944.000122 789.924561,944.000122 702.000000,944.000122 
M571.046692,635.696228 
	C563.900574,665.807129 573.899597,689.185486 599.034485,706.506165 
	C588.915955,743.809448 578.846130,780.933044 568.788452,818.011841 
	C610.251526,818.011841 651.100830,818.011841 692.198181,818.011841 
	C682.014465,780.546570 671.957031,743.545654 661.885864,706.494202 
	C663.732788,705.206848 665.374084,704.102844 666.973938,702.941711 
	C688.365540,687.416016 697.707214,659.400513 689.775757,634.587585 
	C681.486145,608.654175 657.748840,591.171204 630.885559,590.974182 
	C606.809753,590.797607 580.642944,605.615845 571.046692,635.696228 
z"/>
<path fill="#00FFFF" opacity="1.000000" stroke="none" 
	d="
M469.749969,413.749969 
	C380.090485,503.409607 290.681000,592.819275 200.954758,682.545654 
	C181.092041,662.206238 161.513351,642.157715 142.190491,622.371155 
	C305.138153,459.423523 467.961731,296.600037 630.552307,134.009521 
	C793.197327,296.654541 956.332581,459.789856 1118.945679,622.402954 
	C1099.451660,641.897705 1079.568970,661.781311 1059.263184,682.087952 
	C916.810059,539.175537 774.077454,395.982819 631.027283,252.471512 
	C577.174316,306.324829 523.587158,359.912415 469.749969,413.749969 
z"/>
<path fill="#0FB2AA" opacity="1.000000" stroke="none" 
	d="
M314.251556,317.251556 
	C318.537262,313.036224 322.572937,309.070862 326.442688,305.268555 
	C334.517151,313.218018 342.700592,321.274780 351.965271,330.396088 
	C323.869232,358.487366 295.904480,386.447418 267.380096,414.966949 
	C259.287506,406.827393 251.499420,399.161377 244.036957,391.190491 
	C243.396744,390.506592 244.382278,387.274506 245.518753,386.112213 
	C256.930023,374.442108 268.532898,362.959381 280.078186,351.420258 
	C291.388184,340.116241 302.693939,328.807953 314.251556,317.251556 
z"/>
<path fill="#0FB2AA" opacity="1.000000" stroke="none" 
	d="
M196.012695,816.748901 
	C196.003174,789.337341 196.003174,762.403015 196.003174,735.235840 
	C207.419189,735.235840 218.349854,735.235840 229.641052,735.235840 
	C229.641052,762.950073 229.641052,790.657898 229.641052,818.928528 
	C218.919724,818.928528 208.159821,818.949707 197.400925,818.856384 
	C196.936676,818.852356 196.481567,817.793579 196.012695,816.748901 
z"/>
<path fill="#0FB2AA" opacity="1.000000" stroke="none" 
	d="
M1078.651001,496.709656 
	C1077.657471,496.522339 1076.827637,496.282623 1076.291382,495.748352 
	C1063.455200,482.960449 1050.661499,470.130005 1037.826782,457.340546 
	C1036.125366,455.645172 1034.943481,454.139343 1037.251587,451.994720 
	C1044.624756,445.143280 1051.938843,438.228149 1059.280029,431.342224 
	C1059.394775,431.234619 1059.564209,431.185211 1059.147705,431.406982 
	C1073.205444,445.476074 1087.135742,459.417786 1101.584106,473.877838 
	C1094.571655,480.893311 1086.761597,488.706696 1078.651001,496.709656 
z"/>
<path fill="#010101" opacity="1.000000" stroke="none" 
	d="
M571.140381,635.304016 
	C580.642944,605.615845 606.809753,590.797607 630.885559,590.974182 
	C657.748840,591.171204 681.486145,608.654175 689.775757,634.587585 
	C697.707214,659.400513 688.365540,687.416016 666.973938,702.941711 
	C665.374084,704.102844 663.732788,705.206848 661.885864,706.494202 
	C671.957031,743.545654 682.014465,780.546570 692.198181,818.011841 
	C651.100830,818.011841 610.251526,818.011841 568.788452,818.011841 
	C578.846130,780.933044 588.915955,743.809448 599.034485,706.506165 
	C573.899597,689.185486 563.900574,665.807129 571.140381,635.304016 
z"/>
</svg>