<svg version="1.1" id="Layer_1" xmlns="http://www.w3.org/2000/svg" xmlns:xlink="http://www.w3.org/1999/xlink" x="0px" y="0px"
	 width="100%" viewBox="0 0 1280 129" enable-background="new 0 0 1280 129" xml:space="preserve">
<path fill="#030303" opacity="1.000000" stroke="none" 
	d="
M642.000000,130.000000 
	C449.307495,130.000000 256.614990,130.000000 63.172600,129.673096 
	C64.840332,128.396103 67.253693,127.434952 69.676315,126.497757 
	C83.722801,121.063843 92.801804,111.461411 93.856972,95.980423 
	C94.954750,79.874008 87.489845,68.412567 72.882423,61.963116 
	C66.247787,59.033798 59.075687,57.342773 52.221848,54.882603 
	C46.315784,52.762630 40.192188,50.931084 34.751678,47.913757 
	C28.246883,44.306175 26.539070,37.746628 27.351442,30.647177 
	C28.167389,23.516485 32.712933,19.418373 39.219990,17.344767 
	C55.049408,12.300407 68.044510,19.745405 71.711090,35.851192 
	C71.921471,36.775311 72.082809,37.710590 72.266426,38.637894 
	C79.024422,38.637894 85.482002,38.637894 92.097542,38.637894 
	C92.097542,37.647781 92.215897,36.821075 92.080078,36.038490 
	C89.344666,20.277477 81.379272,8.731077 65.760033,3.284621 
	C64.702995,2.916029 63.913776,1.779418 63.000000,1.000000 
	C256.025848,1.000000 449.051666,1.000000 642.853333,1.314025 
	C639.290039,3.517076 634.717529,5.005483 630.656616,7.371928 
	C619.487671,13.880473 613.281982,23.633692 613.248352,36.767853 
	C613.214783,49.898331 619.471924,59.397720 631.227783,64.842636 
	C637.653015,67.818550 644.621338,69.609993 651.307739,72.037422 
	C657.979614,74.459587 664.952271,76.358543 671.161316,79.671043 
	C678.528625,83.601402 680.772888,90.920731 679.830688,98.915802 
	C678.958923,106.312157 673.996094,110.579788 667.333313,113.066887 
	C651.167542,119.101357 634.662170,111.246902 629.146362,95.073242 
	C628.670776,93.678627 627.204285,91.665016 626.101379,91.600853 
	C620.178345,91.256210 614.224731,91.438004 608.030945,91.438004 
	C608.159058,93.061577 608.147034,94.215332 608.353455,95.328598 
	C611.570496,112.683342 622.152710,123.129959 638.848083,127.904839 
	C640.003906,128.235413 640.954102,129.284866 642.000000,130.000000 
M166.921844,121.636681 
	C167.384689,126.387398 169.929031,127.955116 174.642349,127.428429 
	C178.755890,126.968765 182.980927,127.084656 187.120316,127.409714 
	C190.535995,127.677933 192.017731,126.541046 193.049042,123.213623 
	C197.521744,108.783119 202.362122,94.467072 206.989075,80.083763 
	C212.866028,61.814739 218.665863,43.520908 224.498947,25.237778 
	C224.658981,25.243683 224.819031,25.249586 224.979065,25.255491 
	C224.979065,59.217903 224.979065,93.180321 224.979065,127.111397 
	C231.494308,127.111397 237.590347,127.111397 243.742706,127.111397 
	C243.742706,85.853340 243.742706,44.817398 243.742706,3.667402 
	C234.909058,3.667402 226.407059,3.873339 217.923111,3.571641 
	C214.245041,3.440845 212.888489,4.681415 211.836349,8.150631 
	C202.052979,40.408905 192.048904,72.600243 182.097275,104.807419 
	C181.706436,106.072334 181.199112,107.301254 180.509659,109.196960 
	C179.832031,107.113434 179.405273,105.859055 179.015167,104.593369 
	C169.037277,72.220215 159.092041,39.836876 148.996384,7.500490 
	C148.530869,6.009439 146.755310,3.877375 145.533386,3.838914 
	C135.914139,3.536139 126.281105,3.670846 116.404510,3.670846 
	C116.404510,44.992214 116.404510,85.889252 116.404510,127.035934 
	C122.939156,127.035934 129.301056,127.035934 135.979828,127.035934 
	C135.979828,93.407608 135.979828,60.073967 135.979828,26.471167 
	C146.287155,58.159203 156.483765,89.506874 166.921844,121.636681 
M420.500214,3.668015 
	C411.072571,3.668015 401.644897,3.668015 392.221466,3.668015 
	C392.221466,45.196774 392.221466,86.209023 392.221466,126.955208 
	C398.832214,126.955208 405.083313,126.955208 411.619415,126.955208 
	C411.619415,109.796013 411.619415,93.011459 411.619415,76.136757 
	C422.033844,76.136757 432.183929,75.629433 442.232880,76.415161 
	C445.695251,76.685875 449.853638,79.481163 451.989441,82.379410 
	C454.616241,85.943970 455.954651,90.709557 456.971344,95.156876 
	C459.115051,104.534355 460.588989,114.063454 462.597046,123.474998 
	C462.902863,124.908318 464.537750,127.085114 465.657166,127.147873 
	C471.997894,127.503372 478.368835,127.319862 485.434052,127.319862 
	C479.158936,117.314545 478.129547,106.879730 477.030945,96.477867 
	C475.783569,84.667236 472.720551,73.877281 461.414154,67.494072 
	C461.284760,67.421036 461.398041,66.918213 461.398041,66.560440 
	C471.512848,62.675667 479.437714,56.510422 481.951538,45.351425 
	C486.641510,24.531982 476.041626,8.200334 454.856689,5.120462 
	C443.899109,3.527444 432.629089,4.083117 420.500214,3.668015 
M295.172760,87.614250 
	C296.190796,87.221794 297.206757,86.493958 298.227142,86.487778 
	C311.051605,86.410072 323.879272,86.319275 336.697876,86.603752 
	C338.101929,86.634911 340.167847,88.725769 340.716888,90.286835 
	C344.625519,101.399689 348.170258,112.640030 351.978394,123.789398 
	C352.433350,125.121292 353.730377,127.114586 354.716034,127.162071 
	C361.074860,127.468346 367.455627,127.318771 374.325745,127.318771 
	C360.028992,86.376793 346.050903,46.269787 331.904938,6.222085 
	C331.491150,5.050640 329.335052,3.844761 327.940735,3.782214 
	C321.956696,3.513778 315.939026,3.920025 309.963257,3.571779 
	C306.438843,3.366388 305.128601,4.736613 304.013214,7.864932 
	C290.467987,45.854839 276.773651,83.791565 263.135376,121.748329 
	C262.536163,123.415977 262.103638,125.143501 261.446533,127.332535 
	C267.120331,127.332535 272.273590,127.126884 277.400787,127.403679 
	C280.912201,127.593246 282.659637,126.620651 283.750610,122.997192 
	C287.244019,111.394745 291.193359,99.929558 295.172760,87.614250 
M541.500183,3.664516 
	C525.741089,3.664516 509.981995,3.664516 494.122681,3.664516 
	C494.122681,9.054813 494.122681,13.946659 494.122681,19.212938 
	C508.469391,19.212938 522.546021,19.212938 537.123169,19.212938 
	C537.123169,55.458145 537.123169,91.326820 537.123169,126.944878 
	C543.870605,126.944878 550.104370,126.944878 556.810791,126.944878 
	C556.810791,90.855232 556.810791,55.153339 556.810791,19.060543 
	C571.376892,19.060543 585.455444,19.060543 599.660034,19.060543 
	C599.660034,13.758739 599.660034,8.857663 599.660034,3.664507 
	C580.426025,3.664507 561.463135,3.664507 541.500183,3.664516 
z"/>
<path fill="#030303" opacity="1.000000" stroke="none" 
	d="
M990.000000,129.999985 
	C958.312439,130.000000 926.624878,130.000000 894.212280,129.653442 
	C895.647583,128.556625 897.788391,127.742882 899.971558,127.066078 
	C918.763794,121.240372 932.541321,103.541649 931.937500,85.694061 
	C925.717651,85.694061 919.487183,85.694061 913.066528,85.694061 
	C912.614563,87.413925 912.251709,89.025711 911.767578,90.600189 
	C908.054871,102.674126 901.271301,111.676956 888.018494,114.095825 
	C870.596924,117.275566 856.464966,109.867676 849.119446,93.532860 
	C843.335999,80.671837 842.888245,67.116096 844.602234,53.402386 
	C845.800354,43.816536 849.121582,35.021835 855.567017,27.644846 
	C864.987122,16.863270 877.048523,14.221372 890.469055,17.164349 
	C903.068115,19.927206 909.611389,28.924812 912.929626,40.761166 
	C913.322571,42.162907 913.689148,43.572025 914.022461,44.808800 
	C920.632324,44.808800 926.877075,44.808800 933.124695,44.808800 
	C932.135132,24.579775 919.664856,8.961273 900.365723,3.319417 
	C899.123901,2.956389 898.116455,1.791754 897.000000,1.000009 
	C1024.886841,1.000000 1152.773560,1.000000 1281.000000,1.000000 
	C1281.000000,37.686863 1281.000000,74.374771 1280.542969,111.419525 
	C1258.509521,111.776367 1236.933350,111.776367 1215.535278,111.776367 
	C1215.535278,98.462837 1215.535278,85.909225 1215.535278,73.063965 
	C1235.203613,73.063965 1254.468872,73.063965 1273.926270,73.063965 
	C1273.926270,67.858780 1273.926270,62.958710 1273.926270,57.571922 
	C1254.307983,57.571922 1234.916748,57.571922 1215.451172,57.571922 
	C1215.451172,44.533543 1215.451172,31.985382 1215.451172,18.978100 
	C1236.824341,18.978100 1257.881226,18.978100 1278.816772,18.978100 
	C1278.816772,13.601142 1278.816772,8.694583 1278.816772,4.027498 
	C1250.925781,4.027498 1223.371826,4.027498 1195.834351,4.027498 
	C1195.834351,45.258377 1195.834351,86.128967 1195.834351,127.331863 
	C1215.803833,127.331863 1235.435913,127.364639 1255.067749,127.316772 
	C1263.711914,127.295700 1272.355957,127.110619 1281.000000,127.000000 
	C1281.000000,127.998344 1281.000000,128.996689 1281.000000,129.997513 
	C1194.312378,130.000000 1107.624878,130.000000 1020.159241,129.678284 
	C1020.369873,128.881729 1021.313416,128.242569 1022.353943,127.956390 
	C1041.958984,122.563683 1052.740234,109.329880 1053.031250,88.903366 
	C1053.425293,61.257637 1053.242920,33.603672 1053.296021,5.953207 
	C1053.297241,5.328816 1053.159424,4.704158 1053.070923,3.946535 
	C1046.630005,3.946535 1040.421387,3.946535 1033.893921,3.946535 
	C1033.893921,28.347443 1033.922119,52.471615 1033.869385,76.595612 
	C1033.859253,81.251030 1033.849243,85.944061 1033.292480,90.553719 
	C1031.526733,105.173538 1023.752258,112.843079 1009.231201,114.703552 
	C993.487061,116.720711 980.936279,109.577950 977.440430,96.192612 
	C976.361572,92.061882 976.027588,87.639389 976.002625,83.346703 
	C975.859497,58.694580 975.911865,34.041321 975.898010,9.388448 
	C975.897034,7.602942 975.897827,5.817436 975.897827,3.936788 
	C969.128723,3.936788 962.881042,3.936788 956.821411,3.936788 
	C956.543091,4.342639 956.366089,4.480211 956.366455,4.617398 
	C956.430969,33.252949 955.864014,61.909554 956.800171,90.516953 
	C957.479553,111.277489 967.684204,122.429832 987.780823,128.099869 
	C988.631531,128.339920 989.265259,129.349106 990.000000,129.999985 
M1133.422119,3.825419 
	C1116.315674,3.825419 1099.209229,3.825419 1082.014648,3.825419 
	C1082.014648,45.137810 1082.014648,86.139687 1082.014648,127.141754 
	C1088.498169,127.141754 1094.607178,127.141754 1101.184692,127.141754 
	C1101.184692,110.060684 1101.184692,93.159531 1101.184692,76.117912 
	C1111.761353,76.117912 1121.884766,75.769386 1131.967773,76.257469 
	C1137.425415,76.521652 1141.613281,80.008980 1143.769897,85.107773 
	C1145.242188,88.588516 1146.206177,92.333405 1146.990967,96.046112 
	C1148.947388,105.300926 1150.567993,114.627663 1152.604736,123.863457 
	C1152.897949,125.193848 1154.696045,127.108879 1155.882446,127.172363 
	C1162.094727,127.504807 1168.334351,127.327690 1173.534912,127.327690 
	C1171.544800,119.180740 1169.063843,111.454117 1167.853394,103.533356 
	C1165.725098,89.607971 1165.387573,75.107567 1150.336914,66.983070 
	C1152.305054,66.112610 1153.505127,65.601295 1154.689209,65.055046 
	C1166.834717,59.452377 1172.910889,49.931435 1172.731323,36.585178 
	C1172.548706,23.018593 1166.948120,12.561687 1153.798218,7.794807 
	C1147.662109,5.570454 1140.881104,5.125674 1133.422119,3.825419 
z"/>
<path fill="#030303" opacity="1.000000" stroke="none" 
	d="
M866.000000,130.000000 
	C800.979126,130.000000 735.958191,130.000000 670.162903,129.679535 
	C671.790283,128.392334 674.181702,127.398994 676.595520,126.463150 
	C690.879883,120.924942 699.917175,111.055588 700.740784,95.351738 
	C701.574341,79.458130 694.027588,68.183662 679.560486,61.892483 
	C673.050659,59.061630 666.056091,57.364788 659.356323,54.946045 
	C653.295471,52.757954 647.004517,50.885796 641.419067,47.786007 
	C634.882629,44.158398 633.342712,37.486195 634.211792,30.428087 
	C635.058411,23.552828 639.427246,19.407875 645.813293,17.478466 
	C657.995361,13.797905 675.033264,16.355604 678.422363,35.637569 
	C678.594055,36.613991 678.919189,37.563435 679.165222,38.496536 
	C685.817688,38.496536 692.375977,38.496536 698.932678,38.496536 
	C698.542358,22.567175 687.411255,8.025088 672.243042,3.166436 
	C671.052856,2.785193 670.075989,1.737796 669.000000,1.000003 
	C735.020874,1.000000 801.041809,1.000000 867.818726,1.328798 
	C867.406067,2.158972 866.273804,2.781957 865.063416,3.143477 
	C847.611938,8.355830 835.159851,19.172113 828.097839,36.042465 
	C822.431152,49.579491 821.050232,63.728607 823.142944,78.083893 
	C826.761902,102.908104 838.721924,121.178429 864.269714,128.173920 
	C864.961304,128.363281 865.428284,129.372879 866.000000,130.000000 
M742.848938,49.432808 
	C742.848938,39.478676 742.848938,29.524546 742.848938,19.093796 
	C764.354126,19.093796 785.417297,19.093796 806.555115,19.093796 
	C806.555115,13.710515 806.555115,8.816148 806.555115,3.892453 
	C778.640259,3.892453 751.042114,3.892453 723.403687,3.892453 
	C723.403687,45.137096 723.403687,86.160408 723.403687,126.902863 
	C751.991821,126.902863 780.211609,126.902863 808.339844,126.902863 
	C808.339844,121.707710 808.339844,116.941460 808.339844,111.739288 
	C786.493103,111.739288 764.907776,111.739288 743.105591,111.739288 
	C743.105591,98.728470 743.105591,86.165565 743.105591,73.101669 
	C762.747681,73.101669 782.140198,73.101669 801.548462,73.101669 
	C801.548462,67.698936 801.548462,62.804138 801.548462,57.581940 
	C781.938171,57.581940 762.653992,57.581940 742.848938,57.581940 
	C742.848938,54.981052 742.848938,52.694397 742.848938,49.432808 
z"/>
<path fill="#FBFBFB" opacity="1.000000" stroke="none" 
	d="
M62.531345,1.000000 
	C63.913776,1.779418 64.702995,2.916029 65.760033,3.284621 
	C81.379272,8.731077 89.344666,20.277477 92.080078,36.038490 
	C92.215897,36.821075 92.097542,37.647781 92.097542,38.637894 
	C85.482002,38.637894 79.024422,38.637894 72.266426,38.637894 
	C72.082809,37.710590 71.921471,36.775311 71.711090,35.851192 
	C68.044510,19.745405 55.049408,12.300407 39.219990,17.344767 
	C32.712933,19.418373 28.167389,23.516485 27.351442,30.647177 
	C26.539070,37.746628 28.246883,44.306175 34.751678,47.913757 
	C40.192188,50.931084 46.315784,52.762630 52.221848,54.882603 
	C59.075687,57.342773 66.247787,59.033798 72.882423,61.963116 
	C87.489845,68.412567 94.954750,79.874008 93.856972,95.980423 
	C92.801804,111.461411 83.722801,121.063843 69.676315,126.497757 
	C67.253693,127.434952 64.840332,128.396103 62.711349,129.673096 
	C53.979103,130.000000 44.958210,130.000000 35.759010,129.671600 
	C35.224693,129.021118 34.914555,128.499756 34.506046,128.405716 
	C18.815361,124.793716 7.463061,116.301788 2.655892,100.328545 
	C2.579831,100.075813 1.572655,100.103287 1.000000,100.000000 
	C1.000000,97.299988 1.000000,94.599968 1.432627,91.644775 
	C8.336264,91.389595 14.807274,91.389595 21.290682,91.389595 
	C21.635134,92.430519 21.850344,93.036919 22.037188,93.651924 
	C27.066851,110.207443 41.489288,118.260178 58.252987,113.870178 
	C66.249084,111.776207 72.205643,106.008575 72.941414,99.282471 
	C73.888824,90.621635 71.373352,83.245300 63.362125,78.998894 
	C58.573475,76.460640 53.253513,74.907372 48.134624,73.013390 
	C39.296207,69.743210 29.909298,67.519753 21.690619,63.109104 
	C8.275817,55.909901 3.387077,41.840080 7.800269,27.156870 
	C11.713220,14.138024 21.275799,7.079525 33.672768,3.075688 
	C34.577591,2.783458 35.230156,1.710160 36.000000,1.000000 
	C44.687565,1.000000 53.375126,1.000000 62.531345,1.000000 
z"/>
<path fill="#FBFBFB" opacity="1.000000" stroke="none" 
	d="
M668.531372,1.000003 
	C670.075989,1.737796 671.052856,2.785193 672.243042,3.166436 
	C687.411255,8.025088 698.542358,22.567175 698.932678,38.496536 
	C692.375977,38.496536 685.817688,38.496536 679.165222,38.496536 
	C678.919189,37.563435 678.594055,36.613991 678.422363,35.637569 
	C675.033264,16.355604 657.995361,13.797905 645.813293,17.478466 
	C639.427246,19.407875 635.058411,23.552828 634.211792,30.428087 
	C633.342712,37.486195 634.882629,44.158398 641.419067,47.786007 
	C647.004517,50.885796 653.295471,52.757954 659.356323,54.946045 
	C666.056091,57.364788 673.050659,59.061630 679.560486,61.892483 
	C694.027588,68.183662 701.574341,79.458130 700.740784,95.351738 
	C699.917175,111.055588 690.879883,120.924942 676.595520,126.463150 
	C674.181702,127.398994 671.790283,128.392334 669.694214,129.679535 
	C660.979126,130.000000 651.958191,130.000000 642.468628,130.000000 
	C640.954102,129.284866 640.003906,128.235413 638.848083,127.904839 
	C622.152710,123.129959 611.570496,112.683342 608.353455,95.328598 
	C608.147034,94.215332 608.159058,93.061577 608.030945,91.438004 
	C614.224731,91.438004 620.178345,91.256210 626.101379,91.600853 
	C627.204285,91.665016 628.670776,93.678627 629.146362,95.073242 
	C634.662170,111.246902 651.167542,119.101357 667.333313,113.066887 
	C673.996094,110.579788 678.958923,106.312157 679.830688,98.915802 
	C680.772888,90.920731 678.528625,83.601402 671.161316,79.671043 
	C664.952271,76.358543 657.979614,74.459587 651.307739,72.037422 
	C644.621338,69.609993 637.653015,67.818550 631.227783,64.842636 
	C619.471924,59.397720 613.214783,49.898331 613.248352,36.767853 
	C613.281982,23.633692 619.487671,13.880473 630.656616,7.371928 
	C634.717529,5.005483 639.290039,3.517076 643.314575,1.314025 
	C651.354248,1.000000 659.708496,1.000000 668.531372,1.000003 
z"/>
<path fill="#FCFCFC" opacity="1.000000" stroke="none" 
	d="
M990.468628,129.999985 
	C989.265259,129.349106 988.631531,128.339920 987.780823,128.099869 
	C967.684204,122.429832 957.479553,111.277489 956.800171,90.516953 
	C955.864014,61.909554 956.430969,33.252949 956.366455,4.617398 
	C956.366089,4.480211 956.543091,4.342639 956.821411,3.936788 
	C962.881042,3.936788 969.128723,3.936788 975.897827,3.936788 
	C975.897827,5.817436 975.897034,7.602942 975.898010,9.388448 
	C975.911865,34.041321 975.859497,58.694580 976.002625,83.346703 
	C976.027588,87.639389 976.361572,92.061882 977.440430,96.192612 
	C980.936279,109.577950 993.487061,116.720711 1009.231201,114.703552 
	C1023.752258,112.843079 1031.526733,105.173538 1033.292480,90.553719 
	C1033.849243,85.944061 1033.859253,81.251030 1033.869385,76.595612 
	C1033.922119,52.471615 1033.893921,28.347443 1033.893921,3.946535 
	C1040.421387,3.946535 1046.630005,3.946535 1053.070923,3.946535 
	C1053.159424,4.704158 1053.297241,5.328816 1053.296021,5.953207 
	C1053.242920,33.603672 1053.425293,61.257637 1053.031250,88.903366 
	C1052.740234,109.329880 1041.958984,122.563683 1022.353943,127.956390 
	C1021.313416,128.242569 1020.369873,128.881729 1019.690613,129.678284 
	C1010.312439,130.000000 1000.624878,130.000000 990.468628,129.999985 
z"/>
<path fill="#FBFBFB" opacity="1.000000" stroke="none" 
	d="
M866.468628,130.000000 
	C865.428284,129.372879 864.961304,128.363281 864.269714,128.173920 
	C838.721924,121.178429 826.761902,102.908104 823.142944,78.083893 
	C821.050232,63.728607 822.431152,49.579491 828.097839,36.042465 
	C835.159851,19.172113 847.611938,8.355830 865.063416,3.143477 
	C866.273804,2.781957 867.406067,2.158972 868.287354,1.328798 
	C877.354248,1.000000 886.708435,1.000000 896.531372,1.000009 
	C898.116455,1.791754 899.123901,2.956389 900.365723,3.319417 
	C919.664856,8.961273 932.135132,24.579775 933.124695,44.808800 
	C926.877075,44.808800 920.632324,44.808800 914.022461,44.808800 
	C913.689148,43.572025 913.322571,42.162907 912.929626,40.761166 
	C909.611389,28.924812 903.068115,19.927206 890.469055,17.164349 
	C877.048523,14.221372 864.987122,16.863270 855.567017,27.644846 
	C849.121582,35.021835 845.800354,43.816536 844.602234,53.402386 
	C842.888245,67.116096 843.335999,80.671837 849.119446,93.532860 
	C856.464966,109.867676 870.596924,117.275566 888.018494,114.095825 
	C901.271301,111.676956 908.054871,102.674126 911.767578,90.600189 
	C912.251709,89.025711 912.614563,87.413925 913.066528,85.694061 
	C919.487183,85.694061 925.717651,85.694061 931.937500,85.694061 
	C932.541321,103.541649 918.763794,121.240372 899.971558,127.066078 
	C897.788391,127.742882 895.647583,128.556625 893.743591,129.653442 
	C884.979126,130.000000 875.958191,130.000000 866.468628,130.000000 
z"/>
<path fill="#FCFCFC" opacity="1.000000" stroke="none" 
	d="
M1281.000000,126.533882 
	C1272.355957,127.110619 1263.711914,127.295700 1255.067749,127.316772 
	C1235.435913,127.364639 1215.803833,127.331863 1195.834351,127.331863 
	C1195.834351,86.128967 1195.834351,45.258377 1195.834351,4.027498 
	C1223.371826,4.027498 1250.925781,4.027498 1278.816772,4.027498 
	C1278.816772,8.694583 1278.816772,13.601142 1278.816772,18.978100 
	C1257.881226,18.978100 1236.824341,18.978100 1215.451172,18.978100 
	C1215.451172,31.985382 1215.451172,44.533543 1215.451172,57.571922 
	C1234.916748,57.571922 1254.307983,57.571922 1273.926270,57.571922 
	C1273.926270,62.958710 1273.926270,67.858780 1273.926270,73.063965 
	C1254.468872,73.063965 1235.203613,73.063965 1215.535278,73.063965 
	C1215.535278,85.909225 1215.535278,98.462837 1215.535278,111.776367 
	C1236.933350,111.776367 1258.509521,111.776367 1280.542969,111.888184 
	C1281.000000,116.689255 1281.000000,121.378510 1281.000000,126.533882 
z"/>
<path fill="#020202" opacity="1.000000" stroke="none" 
	d="
M35.531342,1.000000 
	C35.230156,1.710160 34.577591,2.783458 33.672768,3.075688 
	C21.275799,7.079525 11.713220,14.138024 7.800269,27.156870 
	C3.387077,41.840080 8.275817,55.909901 21.690619,63.109104 
	C29.909298,67.519753 39.296207,69.743210 48.134624,73.013390 
	C53.253513,74.907372 58.573475,76.460640 63.362125,78.998894 
	C71.373352,83.245300 73.888824,90.621635 72.941414,99.282471 
	C72.205643,106.008575 66.249084,111.776207 58.252987,113.870178 
	C41.489288,118.260178 27.066851,110.207443 22.037188,93.651924 
	C21.850344,93.036919 21.635134,92.430519 21.290682,91.389595 
	C14.807274,91.389595 8.336264,91.389595 1.432627,91.194794 
	C1.000000,61.105373 1.000000,31.210751 1.000000,1.000000 
	C12.352272,1.000000 23.707478,1.000000 35.531342,1.000000 
z"/>
<path fill="#040404" opacity="1.000000" stroke="none" 
	d="
M1.000000,100.468658 
	C1.572655,100.103287 2.579831,100.075813 2.655892,100.328545 
	C7.463061,116.301788 18.815361,124.793716 34.506046,128.405716 
	C34.914555,128.499756 35.224693,129.021118 35.290352,129.671600 
	C23.744719,130.000000 12.489438,130.000000 1.000000,130.000000 
	C1.000000,120.313698 1.000000,110.625504 1.000000,100.468658 
z"/>
<path fill="#FCFCFC" opacity="1.000000" stroke="none" 
	d="
M166.801117,121.245605 
	C156.483765,89.506874 146.287155,58.159203 135.979828,26.471167 
	C135.979828,60.073967 135.979828,93.407608 135.979828,127.035934 
	C129.301056,127.035934 122.939156,127.035934 116.404510,127.035934 
	C116.404510,85.889252 116.404510,44.992214 116.404510,3.670846 
	C126.281105,3.670846 135.914139,3.536139 145.533386,3.838914 
	C146.755310,3.877375 148.530869,6.009439 148.996384,7.500490 
	C159.092041,39.836876 169.037277,72.220215 179.015167,104.593369 
	C179.405273,105.859055 179.832031,107.113434 180.509659,109.196960 
	C181.199112,107.301254 181.706436,106.072334 182.097275,104.807419 
	C192.048904,72.600243 202.052979,40.408905 211.836349,8.150631 
	C212.888489,4.681415 214.245041,3.440845 217.923111,3.571641 
	C226.407059,3.873339 234.909058,3.667402 243.742706,3.667402 
	C243.742706,44.817398 243.742706,85.853340 243.742706,127.111397 
	C237.590347,127.111397 231.494308,127.111397 224.979065,127.111397 
	C224.979065,93.180321 224.979065,59.217903 224.979065,25.255491 
	C224.819031,25.249586 224.658981,25.243683 224.498947,25.237778 
	C218.665863,43.520908 212.866028,61.814739 206.989075,80.083763 
	C202.362122,94.467072 197.521744,108.783119 193.049042,123.213623 
	C192.017731,126.541046 190.535995,127.677933 187.120316,127.409714 
	C182.980927,127.084656 178.755890,126.968765 174.642349,127.428429 
	C169.929031,127.955116 167.384689,126.387398 166.801117,121.245605 
z"/>
<path fill="#FDFDFD" opacity="1.000000" stroke="none" 
	d="
M421.000244,3.668011 
	C432.629089,4.083117 443.899109,3.527444 454.856689,5.120462 
	C476.041626,8.200334 486.641510,24.531982 481.951538,45.351425 
	C479.437714,56.510422 471.512848,62.675667 461.398041,66.560440 
	C461.398041,66.918213 461.284760,67.421036 461.414154,67.494072 
	C472.720551,73.877281 475.783569,84.667236 477.030945,96.477867 
	C478.129547,106.879730 479.158936,117.314545 485.434052,127.319862 
	C478.368835,127.319862 471.997894,127.503372 465.657166,127.147873 
	C464.537750,127.085114 462.902863,124.908318 462.597046,123.474998 
	C460.588989,114.063454 459.115051,104.534355 456.971344,95.156876 
	C455.954651,90.709557 454.616241,85.943970 451.989441,82.379410 
	C449.853638,79.481163 445.695251,76.685875 442.232880,76.415161 
	C432.183929,75.629433 422.033844,76.136757 411.619415,76.136757 
	C411.619415,93.011459 411.619415,109.796013 411.619415,126.955208 
	C405.083313,126.955208 398.832214,126.955208 392.221466,126.955208 
	C392.221466,86.209023 392.221466,45.196774 392.221466,3.668015 
	C401.644897,3.668015 411.072571,3.668015 421.000244,3.668011 
M427.401794,60.446934 
	C432.882263,60.298790 438.387451,60.429001 443.838074,59.944794 
	C455.330109,58.923904 461.968353,51.551914 462.004059,40.230274 
	C462.043701,27.659561 456.581909,20.852198 444.315186,20.043055 
	C433.605255,19.336601 422.811829,19.895767 411.783020,19.895767 
	C411.783020,32.991875 411.783020,46.513828 411.783020,60.446888 
	C416.856934,60.446888 421.643677,60.446888 427.401794,60.446934 
z"/>
<path fill="#FCFCFC" opacity="1.000000" stroke="none" 
	d="
M295.069733,88.012817 
	C291.193359,99.929558 287.244019,111.394745 283.750610,122.997192 
	C282.659637,126.620651 280.912201,127.593246 277.400787,127.403679 
	C272.273590,127.126884 267.120331,127.332535 261.446533,127.332535 
	C262.103638,125.143501 262.536163,123.415977 263.135376,121.748329 
	C276.773651,83.791565 290.467987,45.854839 304.013214,7.864932 
	C305.128601,4.736613 306.438843,3.366388 309.963257,3.571779 
	C315.939026,3.920025 321.956696,3.513778 327.940735,3.782214 
	C329.335052,3.844761 331.491150,5.050640 331.904938,6.222085 
	C346.050903,46.269787 360.028992,86.376793 374.325745,127.318771 
	C367.455627,127.318771 361.074860,127.468346 354.716034,127.162071 
	C353.730377,127.114586 352.433350,125.121292 351.978394,123.789398 
	C348.170258,112.640030 344.625519,101.399689 340.716888,90.286835 
	C340.167847,88.725769 338.101929,86.634911 336.697876,86.603752 
	C323.879272,86.319275 311.051605,86.410072 298.227142,86.487778 
	C297.206757,86.493958 296.190796,87.221794 295.069733,88.012817 
M301.972290,67.551773 
	C301.723633,68.598961 301.474976,69.646149 301.220001,70.719955 
	C312.299622,70.719955 323.056641,70.719955 334.358429,70.719955 
	C328.974365,54.017841 323.704132,37.668896 318.008087,19.999081 
	C312.375641,36.619732 307.268585,51.689896 301.972290,67.551773 
z"/>
<path fill="#FBFBFB" opacity="1.000000" stroke="none" 
	d="
M542.000244,3.664512 
	C561.463135,3.664507 580.426025,3.664507 599.660034,3.664507 
	C599.660034,8.857663 599.660034,13.758739 599.660034,19.060543 
	C585.455444,19.060543 571.376892,19.060543 556.810791,19.060543 
	C556.810791,55.153339 556.810791,90.855232 556.810791,126.944878 
	C550.104370,126.944878 543.870605,126.944878 537.123169,126.944878 
	C537.123169,91.326820 537.123169,55.458145 537.123169,19.212938 
	C522.546021,19.212938 508.469391,19.212938 494.122681,19.212938 
	C494.122681,13.946659 494.122681,9.054813 494.122681,3.664516 
	C509.981995,3.664516 525.741089,3.664516 542.000244,3.664512 
z"/>
<path fill="#FCFCFC" opacity="1.000000" stroke="none" 
	d="
M1133.907227,3.849857 
	C1140.881104,5.125674 1147.662109,5.570454 1153.798218,7.794807 
	C1166.948120,12.561687 1172.548706,23.018593 1172.731323,36.585178 
	C1172.910889,49.931435 1166.834717,59.452377 1154.689209,65.055046 
	C1153.505127,65.601295 1152.305054,66.112610 1150.336914,66.983070 
	C1165.387573,75.107567 1165.725098,89.607971 1167.853394,103.533356 
	C1169.063843,111.454117 1171.544800,119.180740 1173.534912,127.327690 
	C1168.334351,127.327690 1162.094727,127.504807 1155.882446,127.172363 
	C1154.696045,127.108879 1152.897949,125.193848 1152.604736,123.863457 
	C1150.567993,114.627663 1148.947388,105.300926 1146.990967,96.046112 
	C1146.206177,92.333405 1145.242188,88.588516 1143.769897,85.107773 
	C1141.613281,80.008980 1137.425415,76.521652 1131.967773,76.257469 
	C1121.884766,75.769386 1111.761353,76.117912 1101.184692,76.117912 
	C1101.184692,93.159531 1101.184692,110.060684 1101.184692,127.141754 
	C1094.607178,127.141754 1088.498169,127.141754 1082.014648,127.141754 
	C1082.014648,86.139687 1082.014648,45.137810 1082.014648,3.825419 
	C1099.209229,3.825419 1116.315674,3.825419 1133.907227,3.849857 
M1136.076050,20.106483 
	C1124.532959,20.106483 1112.989868,20.106483 1101.535156,20.106483 
	C1101.535156,33.296471 1101.535156,46.697762 1101.535156,60.067341 
	C1112.164795,60.067341 1122.479004,60.410919 1132.759888,59.974323 
	C1143.870605,59.502487 1150.691650,52.903004 1151.805176,42.566277 
	C1153.105835,30.494801 1148.539673,23.660175 1136.076050,20.106483 
z"/>
<path fill="#FDFDFD" opacity="1.000000" stroke="none" 
	d="
M742.848938,49.920277 
	C742.848938,52.694397 742.848938,54.981052 742.848938,57.581940 
	C762.653992,57.581940 781.938171,57.581940 801.548462,57.581940 
	C801.548462,62.804138 801.548462,67.698936 801.548462,73.101669 
	C782.140198,73.101669 762.747681,73.101669 743.105591,73.101669 
	C743.105591,86.165565 743.105591,98.728470 743.105591,111.739288 
	C764.907776,111.739288 786.493103,111.739288 808.339844,111.739288 
	C808.339844,116.941460 808.339844,121.707710 808.339844,126.902863 
	C780.211609,126.902863 751.991821,126.902863 723.403687,126.902863 
	C723.403687,86.160408 723.403687,45.137096 723.403687,3.892453 
	C751.042114,3.892453 778.640259,3.892453 806.555115,3.892453 
	C806.555115,8.816148 806.555115,13.710515 806.555115,19.093796 
	C785.417297,19.093796 764.354126,19.093796 742.848938,19.093796 
	C742.848938,29.524546 742.848938,39.478676 742.848938,49.920277 
z"/>
<path fill="#040404" opacity="1.000000" stroke="none" 
	d="
M426.916107,60.446911 
	C421.643677,60.446888 416.856934,60.446888 411.783020,60.446888 
	C411.783020,46.513828 411.783020,32.991875 411.783020,19.895767 
	C422.811829,19.895767 433.605255,19.336601 444.315186,20.043055 
	C456.581909,20.852198 462.043701,27.659561 462.004059,40.230274 
	C461.968353,51.551914 455.330109,58.923904 443.838074,59.944794 
	C438.387451,60.429001 432.882263,60.298790 426.916107,60.446911 
z"/>
<path fill="#050505" opacity="1.000000" stroke="none" 
	d="
M302.066925,67.155914 
	C307.268585,51.689896 312.375641,36.619732 318.008087,19.999081 
	C323.704132,37.668896 328.974365,54.017841 334.358429,70.719955 
	C323.056641,70.719955 312.299622,70.719955 301.220001,70.719955 
	C301.474976,69.646149 301.723633,68.598961 302.066925,67.155914 
z"/>
<path fill="#030303" opacity="1.000000" stroke="none" 
	d="
M1136.488525,20.182087 
	C1148.539673,23.660175 1153.105835,30.494801 1151.805176,42.566277 
	C1150.691650,52.903004 1143.870605,59.502487 1132.759888,59.974323 
	C1122.479004,60.410919 1112.164795,60.067341 1101.535156,60.067341 
	C1101.535156,46.697762 1101.535156,33.296471 1101.535156,20.106483 
	C1112.989868,20.106483 1124.532959,20.106483 1136.488525,20.182087 
z"/>
</svg>